<svg width="24" height="24" viewBox="0 0 24 24" fill="none" xmlns="http://www.w3.org/2000/svg">
<path d="M2.37035 2.5629C1.30103 1.33119 -0.656029 2.49681 0.219231 4.43873C0.802269 5.73436 1.92874 8.90066 3.50127 11.1812C5.07455 13.4618 6.75106 13.2179 8.44444 13.7702L9.661 14.4011L17.9836 24L19.6667 22.5318L19.6755 22.5245C19.4294 22.2402 11.8605 13.5095 8.86777 10.0582C5.9058 6.64215 2.89039 3.16293 2.37035 2.5629Z" fill="black"/>
<path d="M22.3437 4.3638L19.4404 7.71375C19.2543 7.92824 18.9313 7.95024 18.7174 7.76372L18.6142 7.67412C18.4018 7.48831 18.3783 7.16439 18.5643 6.94994L21.4816 3.58458C21.9606 3.03301 21.7336 2.54457 21.3776 2.23461C21.0224 1.9254 20.5089 1.76746 20.0299 2.31983L17.1127 5.68519C16.9274 5.89893 16.6036 5.92168 16.3905 5.73516L16.2879 5.64557C16.074 5.45975 16.0514 5.13513 16.2367 4.92139L19.1407 1.57144C19.9984 0.582853 18.5643 -0.608473 17.7272 0.357364C16.7244 1.51344 14.9542 3.55525 14.9542 3.55525C13.4073 5.32682 13.4307 6.15676 13.649 7.31941C13.8262 8.25662 14.0862 8.93083 13.126 10.0384L11.7088 11.6734L13.1956 13.3869L14.8195 11.514C15.779 10.4071 16.4813 10.5716 17.4313 10.6164C18.6105 10.673 19.433 10.5804 20.9668 8.79861C20.9668 8.79861 22.7371 6.75529 23.7397 5.59922C24.5769 4.63338 23.2007 3.37596 22.3437 4.3638Z" fill="black"/>
<path d="M8.7074 15.1349L2.30157 22.5237L3.9942 24L10.2682 16.7639L8.97693 15.2744L8.7074 15.1349Z" fill="black"/>
</svg>
