<svg width="24" height="24" viewBox="0 0 24 24" fill="none" xmlns="http://www.w3.org/2000/svg">
<path d="M12.1706 0.000449577C11.9789 0.00455145 11.7963 0.0926238 11.662 0.245734C11.5277 0.398844 11.4525 0.604767 11.4526 0.819237V16.3829C11.4526 16.6001 11.5297 16.8083 11.667 16.9619C11.8043 17.1154 11.9905 17.2017 12.1846 17.2017C12.3788 17.2017 12.565 17.1154 12.7023 16.9619C12.8396 16.8083 12.9167 16.6001 12.9167 16.3829V0.819237C12.9167 0.710478 12.8973 0.602805 12.8597 0.502505C12.8221 0.402206 12.7671 0.311289 12.6977 0.235065C12.6283 0.15884 12.5461 0.0988347 12.4558 0.0585525C12.3654 0.0182702 12.2678 -0.00148194 12.1706 0.000449577ZM23.2476 4.66262C23.152 4.66571 23.0579 4.68964 22.9705 4.73309L16.688 7.86954C16.5595 7.93448 16.4504 8.03952 16.3739 8.17205C16.2974 8.30458 16.2567 8.45898 16.2567 8.61673C16.2567 8.77448 16.2974 8.92889 16.3739 9.06142C16.4504 9.19395 16.5595 9.29899 16.688 9.36393L22.9705 12.5104C23.0649 12.5579 23.1671 12.5827 23.2706 12.5832C23.4379 12.5826 23.6001 12.5178 23.73 12.3998C23.8598 12.2817 23.9496 12.1174 23.9844 11.9343C24.0191 11.7512 23.9967 11.5603 23.9208 11.3934C23.845 11.2265 23.7203 11.0937 23.5676 11.0172L18.7812 8.61785L23.5676 6.22749C23.7443 6.13849 23.8824 5.97494 23.9517 5.77252C24.021 5.57009 24.016 5.34522 23.9376 5.14695C23.8782 4.99903 23.781 4.87409 23.6582 4.78789C23.5354 4.70169 23.3925 4.6581 23.2476 4.66262ZM0.745644 10.2912C0.632805 10.2889 0.521021 10.3159 0.419025 10.3699C0.317028 10.4239 0.227581 10.5036 0.157672 10.6027C0.0877625 10.7018 0.0392838 10.8176 0.0160231 10.9411C-0.00723768 11.0646 -0.00465056 11.1925 0.0235823 11.3147C1.75973 18.7833 7.79925 24.0003 14.7078 24.0003C14.902 24.0003 15.0882 23.9141 15.2255 23.7605C15.3628 23.6069 15.4399 23.3987 15.4399 23.1815C15.4399 22.9644 15.3628 22.7561 15.2255 22.6026C15.0882 22.449 14.902 22.3627 14.7078 22.3627C11.6744 22.3641 8.72618 21.2399 6.32516 19.1664C3.92414 17.0928 2.20593 14.187 1.4397 10.9042C1.39942 10.7316 1.30982 10.5784 1.18453 10.4679C1.05925 10.3575 0.905136 10.2947 0.745644 10.2912Z" fill="url(#paint0_linear_5_38)" stroke="#FC4A1A" stroke-width="0.00064"/>
<defs>
<linearGradient id="paint0_linear_5_38" x1="12.0003" y1="0.000320435" x2="12.0003" y2="24.0003" gradientUnits="userSpaceOnUse">
<stop stop-color="#F7B733"/>
<stop offset="1" stop-color="#FC4A1A"/>
</linearGradient>
</defs>
</svg>
