<svg width="24" height="24" viewBox="0 0 24 24" fill="none" xmlns="http://www.w3.org/2000/svg">
<path fill-rule="evenodd" clip-rule="evenodd" d="M12.0003 0.000321569C5.37116 0.000321569 0.000305176 5.50775 0.000305176 12.3049C0.000305176 17.742 3.43916 22.352 8.20659 23.9796C8.80659 24.0922 9.02602 23.7122 9.02602 23.3867C9.02602 23.0946 9.01573 22.3204 9.00888 21.2928C5.67116 22.0371 4.96831 19.6441 4.96831 19.6441C4.42145 18.2223 3.63459 17.844 3.63459 17.844C2.54602 17.0804 3.71688 17.0962 3.71688 17.0962C4.92202 17.1842 5.55631 18.3631 5.55631 18.3631C6.62602 20.2458 8.36431 19.7004 9.04831 19.3872C9.15631 18.5918 9.46659 18.0499 9.80945 17.742C7.14545 17.4323 4.34431 16.3766 4.34431 11.6609C4.34431 10.3184 4.81231 9.21866 5.57859 8.36C5.45516 8.04855 5.04373 6.79751 5.69859 5.10481C5.69859 5.10481 6.70316 4.77225 8.99688 6.36465C9.9758 6.09091 10.9857 5.95128 12.0003 5.9494C13.0203 5.95468 14.0472 6.09016 15.0054 6.36465C17.2957 4.77225 18.302 5.10305 18.302 5.10305C18.9569 6.79751 18.5454 8.04855 18.422 8.35824C19.19 9.22042 19.6563 10.3184 19.6563 11.6609C19.6563 16.3871 16.8483 17.4288 14.1757 17.7314C14.606 18.1115 14.99 18.8628 14.99 20.0118C14.99 21.6552 14.9746 22.982 14.9746 23.3867C14.9746 23.7157 15.1923 24.0975 15.8009 23.9779C18.1878 23.1609 20.264 21.5941 21.7355 19.4993C23.207 17.4044 23.9993 14.8875 24.0003 12.3049C23.9985 9.03999 22.7332 5.90948 20.4829 3.60197C18.2325 1.29445 15.1812 -0.00107883 12.0003 0.000321569Z" fill="url(#paint0_linear_3_64)" stroke="#FC4A1A" stroke-width="0.00064"/>
<defs>
<linearGradient id="paint0_linear_3_64" x1="12.0003" y1="0.000320435" x2="12.0003" y2="24.0003" gradientUnits="userSpaceOnUse">
<stop stop-color="#F7B733"/>
<stop offset="1" stop-color="#FC4A1A"/>
</linearGradient>
</defs>
</svg>
