<svg width="48" height="48" viewBox="0 0 48 48" fill="none" xmlns="http://www.w3.org/2000/svg">
<rect width="48" height="48" rx="8" fill="url(#paint0_linear_12_24)"/>
<path fill-rule="evenodd" clip-rule="evenodd" d="M10 2C5.58172 2 2 5.58172 2 10V38C2 42.4182 5.58172 46 10 46H38C42.4182 46 46 42.4182 46 38V10C46 5.58172 42.4182 2 38 2H10ZM9.33142 9C8.9807 9.13054 8.68478 9.39018 8.51206 9.7366C8.25828 10.2456 8.31422 10.8544 8.65652 11.3086L19.8849 26.2092L8.05306 38.8972C8.02204 38.9306 7.99284 38.9648 7.96542 39H12.0592L21.7182 28.642L29.1448 38.4976C29.319 38.7286 29.5534 38.9012 29.8176 39H38.6622C39.0118 38.8692 39.307 38.61 39.4792 38.2642C39.733 37.7552 39.6772 37.1464 39.3348 36.6922L28.1064 21.7916L40.0346 9H35.9326L26.273 19.3586L18.8464 9.50316C18.6718 9.2715 18.4365 9.09862 18.1714 9H9.33142ZM31.0908 36.095L12.863 11.9059H16.9006L35.1284 36.095H31.0908Z" fill="black"/>
<defs>
<linearGradient id="paint0_linear_12_24" x1="24" y1="0" x2="24" y2="48" gradientUnits="userSpaceOnUse">
<stop stop-color="#F7B733"/>
<stop offset="1" stop-color="#FC4A1A"/>
</linearGradient>
</defs>
</svg>
