<svg xmlns="http://www.w3.org/2000/svg" fill="none" viewBox="0 0 48 48" id="X-Twitter-Logo--Streamline-Logos-Block" height="48" width="48">
  <desc>
    X Twitter Logo Streamline Icon: https://streamlinehq.com
  </desc>
  <path fill="#000000" fill-rule="evenodd" d="M10 2C5.58172 2 2 5.58172 2 10v28c0 4.4182 3.58172 8 8 8h28c4.4182 0 8 -3.5818 8 -8V10c0 -4.41828 -3.5818 -8 -8 -8H10Zm-0.66858 7c-0.35072 0.13054 -0.64664 0.39018 -0.81936 0.7366 -0.25378 0.509 -0.19784 1.11778 0.14446 1.57202l11.22836 14.90058 -11.83182 12.688c-0.03102 0.0334 -0.06022 0.0676 -0.08764 0.1028h4.09382l9.65896 -10.358 7.4266 9.8556c0.1742 0.231 0.4086 0.4036 0.6728 0.5024h8.8446c0.3496 -0.1308 0.6448 -0.39 0.817 -0.7358 0.2538 -0.509 0.198 -1.1178 -0.1444 -1.572l-11.2284 -14.9006L40.0346 9h-4.102l-9.6596 10.35864 -7.4266 -9.85548c-0.17458 -0.23166 -0.40992 -0.40454 -0.675 -0.50316H9.33142ZM31.0908 36.095 12.863 11.90588h4.03756L35.1284 36.095h-4.0376Z" clip-rule="evenodd" stroke-width="2"></path>
</svg>